<svg width="148" height="45" viewBox="0 0 148 45" fill="none" xmlns="http://www.w3.org/2000/svg">
<path d="M67.825 15.55C69.6583 15.55 71.2667 15.9083 72.65 16.625C74.05 17.3417 75.125 18.3667 75.875 19.7C76.6417 21.0167 77.025 22.55 77.025 24.3C77.025 26.05 76.6417 27.5833 75.875 28.9C75.125 30.2 74.05 31.2083 72.65 31.925C71.2667 32.6417 69.6583 33 67.825 33H61.725V15.55H67.825ZM67.7 30.025C69.5333 30.025 70.95 29.525 71.95 28.525C72.95 27.525 73.45 26.1167 73.45 24.3C73.45 22.4833 72.95 21.0667 71.95 20.05C70.95 19.0167 69.5333 18.5 67.7 18.5H65.225V30.025H67.7ZM84.6699 33.175C83.4533 33.175 82.3533 32.9667 81.3699 32.55C80.4033 32.1333 79.6366 31.5333 79.0699 30.75C78.5033 29.9667 78.2116 29.0417 78.1949 27.975H81.9449C81.9949 28.6917 82.2449 29.2583 82.6949 29.675C83.1616 30.0917 83.7949 30.3 84.5949 30.3C85.4116 30.3 86.0533 30.1083 86.5199 29.725C86.9866 29.325 87.2199 28.8083 87.2199 28.175C87.2199 27.6583 87.0616 27.2333 86.7449 26.9C86.4283 26.5667 86.0283 26.3083 85.5449 26.125C85.0783 25.925 84.4283 25.7083 83.5949 25.475C82.4616 25.1417 81.5366 24.8167 80.8199 24.5C80.1199 24.1667 79.5116 23.675 78.9949 23.025C78.4949 22.3583 78.2449 21.475 78.2449 20.375C78.2449 19.3417 78.5033 18.4417 79.0199 17.675C79.5366 16.9083 80.2616 16.325 81.1949 15.925C82.1283 15.5083 83.1949 15.3 84.3949 15.3C86.1949 15.3 87.6533 15.7417 88.7699 16.625C89.9033 17.4917 90.5283 18.7083 90.6449 20.275H86.7949C86.7616 19.675 86.5033 19.1833 86.0199 18.8C85.5533 18.4 84.9283 18.2 84.1449 18.2C83.4616 18.2 82.9116 18.375 82.4949 18.725C82.0949 19.075 81.8949 19.5833 81.8949 20.25C81.8949 20.7167 82.0449 21.1083 82.3449 21.425C82.6616 21.725 83.0449 21.975 83.4949 22.175C83.9616 22.3583 84.6116 22.575 85.4449 22.825C86.5783 23.1583 87.5033 23.4917 88.2199 23.825C88.9366 24.1583 89.5533 24.6583 90.0699 25.325C90.5866 25.9917 90.8449 26.8667 90.8449 27.95C90.8449 28.8833 90.6033 29.75 90.1199 30.55C89.6366 31.35 88.9283 31.9917 87.9949 32.475C87.0616 32.9417 85.9533 33.175 84.6699 33.175ZM96.9543 22.025V28.725C96.9543 29.1917 97.0626 29.5333 97.2793 29.75C97.5126 29.95 97.896 30.05 98.4293 30.05H100.054V33H97.8543C94.9043 33 93.4293 31.5667 93.4293 28.7V22.025H91.7793V19.15H93.4293V15.725H96.9543V19.15H100.054V22.025H96.9543ZM100.672 26.025C100.672 24.625 100.947 23.3833 101.497 22.3C102.063 21.2167 102.822 20.3833 103.772 19.8C104.738 19.2167 105.813 18.925 106.997 18.925C108.03 18.925 108.93 19.1333 109.697 19.55C110.48 19.9667 111.105 20.4917 111.572 21.125V19.15H115.097V33H111.572V30.975C111.122 31.625 110.497 32.1667 109.697 32.6C108.913 33.0167 108.005 33.225 106.972 33.225C105.805 33.225 104.738 32.925 103.772 32.325C102.822 31.725 102.063 30.8833 101.497 29.8C100.947 28.7 100.672 27.4417 100.672 26.025ZM111.572 26.075C111.572 25.225 111.405 24.5 111.072 23.9C110.738 23.2833 110.288 22.8167 109.722 22.5C109.155 22.1667 108.547 22 107.897 22C107.247 22 106.647 22.1583 106.097 22.475C105.547 22.7917 105.097 23.2583 104.747 23.875C104.413 24.475 104.247 25.1917 104.247 26.025C104.247 26.8583 104.413 27.5917 104.747 28.225C105.097 28.8417 105.547 29.3167 106.097 29.65C106.663 29.9833 107.263 30.15 107.897 30.15C108.547 30.15 109.155 29.9917 109.722 29.675C110.288 29.3417 110.738 28.875 111.072 28.275C111.405 27.6583 111.572 26.925 111.572 26.075ZM122.94 18.925C123.973 18.925 124.882 19.1333 125.665 19.55C126.448 19.95 127.065 20.475 127.515 21.125V19.15H131.04V33.1C131.04 34.3833 130.782 35.525 130.265 36.525C129.748 37.5417 128.973 38.3417 127.94 38.925C126.907 39.525 125.657 39.825 124.19 39.825C122.223 39.825 120.607 39.3667 119.34 38.45C118.09 37.5333 117.382 36.2833 117.215 34.7H120.69C120.873 35.3333 121.265 35.8333 121.865 36.2C122.482 36.5833 123.223 36.775 124.09 36.775C125.107 36.775 125.932 36.4667 126.565 35.85C127.198 35.25 127.515 34.3333 127.515 33.1V30.95C127.065 31.6 126.44 32.1417 125.64 32.575C124.857 33.0083 123.957 33.225 122.94 33.225C121.773 33.225 120.707 32.925 119.74 32.325C118.773 31.725 118.007 30.8833 117.44 29.8C116.89 28.7 116.615 27.4417 116.615 26.025C116.615 24.625 116.89 23.3833 117.44 22.3C118.007 21.2167 118.765 20.3833 119.715 19.8C120.682 19.2167 121.757 18.925 122.94 18.925ZM127.515 26.075C127.515 25.225 127.348 24.5 127.015 23.9C126.682 23.2833 126.232 22.8167 125.665 22.5C125.098 22.1667 124.49 22 123.84 22C123.19 22 122.59 22.1583 122.04 22.475C121.49 22.7917 121.04 23.2583 120.69 23.875C120.357 24.475 120.19 25.1917 120.19 26.025C120.19 26.8583 120.357 27.5917 120.69 28.225C121.04 28.8417 121.49 29.3167 122.04 29.65C122.607 29.9833 123.207 30.15 123.84 30.15C124.49 30.15 125.098 29.9917 125.665 29.675C126.232 29.3417 126.682 28.875 127.015 28.275C127.348 27.6583 127.515 26.925 127.515 26.075ZM146.333 25.775C146.333 26.275 146.3 26.725 146.233 27.125H136.108C136.192 28.125 136.542 28.9083 137.158 29.475C137.775 30.0417 138.533 30.325 139.433 30.325C140.733 30.325 141.658 29.7667 142.208 28.65H145.983C145.583 29.9833 144.817 31.0833 143.683 31.95C142.55 32.8 141.158 33.225 139.508 33.225C138.175 33.225 136.975 32.9333 135.908 32.35C134.858 31.75 134.033 30.9083 133.433 29.825C132.85 28.7417 132.558 27.4917 132.558 26.075C132.558 24.6417 132.85 23.3833 133.433 22.3C134.017 21.2167 134.833 20.3833 135.883 19.8C136.933 19.2167 138.142 18.925 139.508 18.925C140.825 18.925 142 19.2083 143.033 19.775C144.083 20.3417 144.892 21.15 145.458 22.2C146.042 23.2333 146.333 24.425 146.333 25.775ZM142.708 24.775C142.692 23.875 142.367 23.1583 141.733 22.625C141.1 22.075 140.325 21.8 139.408 21.8C138.542 21.8 137.808 22.0667 137.208 22.6C136.625 23.1167 136.267 23.8417 136.133 24.775H142.708Z" fill="white"/>
<path d="M22.5 0C10.0734 0 0 10.0734 0 22.5C0 34.9266 10.0734 45 22.5 45C34.9266 45 45 34.9266 45 22.5C45 10.0734 34.9266 0 22.5 0Z" fill="#692ADC"/>
<path d="M15.8882 16.6922C15.8882 10.6644 20.7748 5.77783 26.8026 5.77783V5.77783C32.8305 5.77783 37.717 10.6644 37.717 16.6922V29.7656H15.8882V16.6922Z" fill="#80FFDB"/>
<path d="M15.8878 34.9186C15.8878 37.2949 13.9615 39.2212 11.5852 39.2212V39.2212C9.2089 39.2212 7.28253 37.2949 7.28253 34.9186V29.7651H15.8878V34.9186Z" fill="#80FFDB"/>
<path d="M7.14131 21.5156H4.73193V27.9047H7.14131C9.02146 27.9047 10.3818 26.5631 10.3818 24.7102C10.3818 22.8572 9.02146 21.5156 7.14131 21.5156ZM7.11412 26.6269H6.11006V22.8023H7.11412C8.20912 22.8023 8.96709 23.5781 8.96709 24.7102C8.96709 25.8234 8.20912 26.6269 7.11412 26.6269Z" fill="#FAFAFA"/>
<path d="M13.2831 28.0326C14.6068 28.0326 15.7018 27.366 15.7018 25.9879C15.7018 24.5549 14.4789 24.2535 13.5114 24.0074C12.827 23.8429 12.279 23.706 12.279 23.2588C12.279 22.8388 12.7262 22.6471 13.1734 22.6471C13.6937 22.6471 14.1503 22.9031 14.1503 23.4595H15.5101C15.5101 22.1817 14.6795 21.397 13.21 21.397C11.7953 21.397 10.892 22.0907 10.892 23.3137C10.892 24.6918 12.0601 24.9749 13.0276 25.2121C13.7214 25.3673 14.3054 25.5042 14.3054 26.0062C14.3054 26.4806 13.7945 26.7548 13.2742 26.7548C12.7079 26.7548 12.197 26.4534 12.197 25.8417H10.8006C10.8006 27.2109 11.8136 28.0326 13.2831 28.0326Z" fill="#FAFAFA"/>
<path d="M18.8046 26.7181C18.3115 26.7181 18.0377 26.4443 18.0377 25.9695V24.0528H19.3793V22.9756H18.0194V21.6978H17.764L15.8196 23.7607V24.0528H16.705V26.1518C16.705 27.2384 17.3711 27.9045 18.4577 27.9045H19.4069V26.7181H18.8046Z" fill="#172243"/>
<path d="M24.0066 22.9757L23.8692 23.4412C23.4403 23.0671 22.8839 22.8389 22.2446 22.8389C20.7661 22.8389 19.6617 23.9526 19.6617 25.4404C19.6617 26.9282 20.7661 28.0509 22.2446 28.0509C22.8746 28.0509 23.4221 27.8315 23.8421 27.4575L23.9606 27.9046H25.0013V22.9757H24.0066ZM22.3542 26.7909C21.5785 26.7909 21.0127 26.2068 21.0127 25.4404C21.0127 24.6646 21.5785 24.0895 22.3542 24.0895C23.13 24.0895 23.6958 24.6646 23.6958 25.4404C23.6958 26.2162 23.13 26.7909 22.3542 26.7909Z" fill="#172243"/>
<path d="M29.9386 22.9757L29.7192 23.4689C29.2903 23.0765 28.7245 22.8389 28.0856 22.8389C26.7075 22.8389 25.6303 23.9343 25.6303 25.3125C25.6303 26.7 26.7075 27.7861 28.0856 27.7861C28.6148 27.7861 29.0986 27.6215 29.4914 27.3478V27.5306C29.4914 28.2515 28.9345 28.6898 28.2591 28.6898C27.7659 28.6898 27.2461 28.4615 27.0905 28.0143H25.7672C25.9955 29.137 26.9447 29.8214 28.2773 29.8214C29.8378 29.8214 30.7964 28.8811 30.7964 27.3389V22.9851L29.9386 22.9757ZM28.2408 26.5903C27.5105 26.5903 26.9812 26.0517 26.9812 25.3218C26.9812 24.5821 27.5105 24.044 28.2408 24.044C28.9711 24.044 29.5003 24.5821 29.5003 25.3218C29.5003 26.0517 28.9711 26.5903 28.2408 26.5903Z" fill="#172243"/>
<path d="M36.5365 25.4311C36.5365 24.0075 35.4959 22.8389 33.9809 22.8389C32.5207 22.8389 31.4252 23.9615 31.4252 25.4404C31.4252 26.9189 32.5296 28.0509 33.9809 28.0509C35.1312 28.0509 36.071 27.3661 36.4268 26.2893H35.0304C34.8298 26.6451 34.4463 26.864 33.9809 26.864C33.333 26.864 32.8948 26.49 32.7762 25.8145H36.5093C36.5276 25.6865 36.5365 25.559 36.5365 25.4311ZM33.9809 23.9798C34.5832 23.9798 35.0121 24.3084 35.2038 24.9107H32.8127C32.9679 24.3267 33.3874 23.9798 33.9809 23.9798Z" fill="#172243"/>
</svg>
